<mxfile host="Electron" agent="Mozilla/5.0 (Windows NT 10.0; Win64; x64) AppleWebKit/537.36 (KHTML, like Gecko) draw.io/24.7.17 Chrome/128.0.6613.36 Electron/32.0.1 Safari/537.36" version="24.7.17">
  <diagram name="Страница — 1" id="a4rjDffVRMjO_UgEeAFE">
    <mxGraphModel dx="2140" dy="836" grid="1" gridSize="10" guides="1" tooltips="1" connect="1" arrows="1" fold="1" page="1" pageScale="1" pageWidth="827" pageHeight="1169" background="#000000" math="0" shadow="0">
      <root>
        <mxCell id="0" />
        <mxCell id="1" parent="0" />
        <mxCell id="eeoJ9yDYp1N3yY1OvAIX-26" style="edgeStyle=orthogonalEdgeStyle;rounded=0;orthogonalLoop=1;jettySize=auto;html=1;exitX=0;exitY=1;exitDx=0;exitDy=0;entryX=0;entryY=0;entryDx=0;entryDy=0;" edge="1" parent="1" source="eeoJ9yDYp1N3yY1OvAIX-1" target="eeoJ9yDYp1N3yY1OvAIX-7">
          <mxGeometry relative="1" as="geometry" />
        </mxCell>
        <mxCell id="eeoJ9yDYp1N3yY1OvAIX-1" value="User Story Mapping" style="rounded=0;whiteSpace=wrap;html=1;" vertex="1" parent="1">
          <mxGeometry x="40" y="90" width="1120" height="30" as="geometry" />
        </mxCell>
        <mxCell id="eeoJ9yDYp1N3yY1OvAIX-7" value="Регистрация и авторизация" style="rounded=0;whiteSpace=wrap;html=1;" vertex="1" parent="1">
          <mxGeometry x="40" y="120" width="200" height="40" as="geometry" />
        </mxCell>
        <mxCell id="eeoJ9yDYp1N3yY1OvAIX-8" value="Коллекции" style="rounded=0;whiteSpace=wrap;html=1;" vertex="1" parent="1">
          <mxGeometry x="240" y="120" width="210" height="40" as="geometry" />
        </mxCell>
        <mxCell id="eeoJ9yDYp1N3yY1OvAIX-9" value="Страница просмотра стикера" style="rounded=0;whiteSpace=wrap;html=1;" vertex="1" parent="1">
          <mxGeometry x="450" y="120" width="200" height="40" as="geometry" />
        </mxCell>
        <mxCell id="eeoJ9yDYp1N3yY1OvAIX-11" value="Кабинет автора" style="rounded=0;whiteSpace=wrap;html=1;" vertex="1" parent="1">
          <mxGeometry x="650" y="120" width="190" height="40" as="geometry" />
        </mxCell>
        <mxCell id="eeoJ9yDYp1N3yY1OvAIX-12" value="Регистрация и вход по кредитсам пользователя" style="rounded=1;whiteSpace=wrap;html=1;fillColor=#f0a30a;fontColor=#FFFFFF;strokeColor=#BD7000;" vertex="1" parent="1">
          <mxGeometry x="80" y="170" width="120" height="60" as="geometry" />
        </mxCell>
        <mxCell id="eeoJ9yDYp1N3yY1OvAIX-13" value="" style="endArrow=none;html=1;rounded=0;entryX=0;entryY=1;entryDx=0;entryDy=0;" edge="1" parent="1">
          <mxGeometry width="50" height="50" relative="1" as="geometry">
            <mxPoint x="240" y="830" as="sourcePoint" />
            <mxPoint x="239" y="160" as="targetPoint" />
          </mxGeometry>
        </mxCell>
        <mxCell id="eeoJ9yDYp1N3yY1OvAIX-16" value="Регистрация и вход с помощью соцсеток" style="rounded=1;whiteSpace=wrap;html=1;fillColor=#f0a30a;fontColor=#FFFFFF;strokeColor=#BD7000;" vertex="1" parent="1">
          <mxGeometry x="80" y="540" width="120" height="60" as="geometry" />
        </mxCell>
        <mxCell id="eeoJ9yDYp1N3yY1OvAIX-17" value="Регистрация и вход с помощью гугла" style="rounded=1;whiteSpace=wrap;html=1;fillColor=#f0a30a;fontColor=#FFFFFF;strokeColor=#BD7000;" vertex="1" parent="1">
          <mxGeometry x="80" y="450" width="120" height="60" as="geometry" />
        </mxCell>
        <mxCell id="eeoJ9yDYp1N3yY1OvAIX-18" value="" style="endArrow=none;html=1;rounded=0;entryX=0;entryY=1;entryDx=0;entryDy=0;" edge="1" parent="1" target="eeoJ9yDYp1N3yY1OvAIX-9">
          <mxGeometry width="50" height="50" relative="1" as="geometry">
            <mxPoint x="450" y="840" as="sourcePoint" />
            <mxPoint x="470" y="270" as="targetPoint" />
          </mxGeometry>
        </mxCell>
        <mxCell id="eeoJ9yDYp1N3yY1OvAIX-19" value="Пример" style="rounded=1;whiteSpace=wrap;html=1;fillColor=#f0a30a;fontColor=#FFFFFF;strokeColor=#BD7000;" vertex="1" parent="1">
          <mxGeometry x="20" y="10" width="120" height="60" as="geometry" />
        </mxCell>
        <mxCell id="eeoJ9yDYp1N3yY1OvAIX-20" value="Просмотр коллекции" style="rounded=1;whiteSpace=wrap;html=1;fillColor=#f0a30a;fontColor=#FFFFFF;strokeColor=#BD7000;" vertex="1" parent="1">
          <mxGeometry x="285" y="180" width="120" height="60" as="geometry" />
        </mxCell>
        <mxCell id="eeoJ9yDYp1N3yY1OvAIX-21" value="Просмотр отдельного стикера из коллекции" style="rounded=1;whiteSpace=wrap;html=1;fillColor=#f0a30a;fontColor=#FFFFFF;strokeColor=#BD7000;" vertex="1" parent="1">
          <mxGeometry x="285" y="250" width="120" height="60" as="geometry" />
        </mxCell>
        <mxCell id="eeoJ9yDYp1N3yY1OvAIX-22" value="Редактирование коллекции" style="rounded=1;whiteSpace=wrap;html=1;fillColor=#f0a30a;fontColor=#FFFFFF;strokeColor=#BD7000;" vertex="1" parent="1">
          <mxGeometry x="285" y="320" width="120" height="60" as="geometry" />
        </mxCell>
        <mxCell id="eeoJ9yDYp1N3yY1OvAIX-23" value="Переход с просмотра стикера на страницу автора" style="rounded=1;whiteSpace=wrap;html=1;fillColor=#f0a30a;fontColor=#FFFFFF;strokeColor=#BD7000;" vertex="1" parent="1">
          <mxGeometry x="285" y="730" width="120" height="60" as="geometry" />
        </mxCell>
        <mxCell id="eeoJ9yDYp1N3yY1OvAIX-24" value="Просмотр&amp;nbsp;&lt;div&gt;коллекции&amp;nbsp;&lt;/div&gt;&lt;div&gt;работ&lt;/div&gt;&lt;div&gt;автора&lt;/div&gt;" style="rounded=1;whiteSpace=wrap;html=1;fillColor=#f0a30a;fontColor=#FFFFFF;strokeColor=#BD7000;" vertex="1" parent="1">
          <mxGeometry x="285" y="540" width="120" height="60" as="geometry" />
        </mxCell>
        <mxCell id="eeoJ9yDYp1N3yY1OvAIX-25" value="Поиск чужих коллекций" style="rounded=1;whiteSpace=wrap;html=1;fillColor=#f0a30a;fontColor=#FFFFFF;strokeColor=#BD7000;" vertex="1" parent="1">
          <mxGeometry x="285" y="630" width="120" height="60" as="geometry" />
        </mxCell>
        <mxCell id="eeoJ9yDYp1N3yY1OvAIX-27" value="" style="endArrow=none;html=1;rounded=0;entryX=0;entryY=1;entryDx=0;entryDy=0;" edge="1" parent="1">
          <mxGeometry width="50" height="50" relative="1" as="geometry">
            <mxPoint x="650" y="840" as="sourcePoint" />
            <mxPoint x="650" y="160" as="targetPoint" />
          </mxGeometry>
        </mxCell>
        <mxCell id="eeoJ9yDYp1N3yY1OvAIX-29" value="Информация о стикере: автор, место, время нахождения" style="rounded=1;whiteSpace=wrap;html=1;fillColor=#f0a30a;fontColor=#FFFFFF;strokeColor=#BD7000;" vertex="1" parent="1">
          <mxGeometry x="490" y="180" width="120" height="60" as="geometry" />
        </mxCell>
        <mxCell id="eeoJ9yDYp1N3yY1OvAIX-30" value="Информация о том, кто еще из пользователей нашел стикер" style="rounded=1;whiteSpace=wrap;html=1;fillColor=#f0a30a;fontColor=#FFFFFF;strokeColor=#BD7000;" vertex="1" parent="1">
          <mxGeometry x="490" y="525" width="120" height="60" as="geometry" />
        </mxCell>
        <mxCell id="eeoJ9yDYp1N3yY1OvAIX-31" value="Переход на страницу автора" style="rounded=1;whiteSpace=wrap;html=1;fillColor=#f0a30a;fontColor=#FFFFFF;strokeColor=#BD7000;" vertex="1" parent="1">
          <mxGeometry x="490" y="450" width="120" height="60" as="geometry" />
        </mxCell>
        <mxCell id="eeoJ9yDYp1N3yY1OvAIX-32" value="Просмотр карты с отметками о найденных стикерах" style="rounded=1;whiteSpace=wrap;html=1;fillColor=#f0a30a;fontColor=#FFFFFF;strokeColor=#BD7000;" vertex="1" parent="1">
          <mxGeometry x="285" y="450" width="120" height="60" as="geometry" />
        </mxCell>
        <mxCell id="eeoJ9yDYp1N3yY1OvAIX-33" value="" style="endArrow=none;html=1;rounded=0;entryX=0;entryY=1;entryDx=0;entryDy=0;" edge="1" parent="1">
          <mxGeometry width="50" height="50" relative="1" as="geometry">
            <mxPoint x="840" y="840" as="sourcePoint" />
            <mxPoint x="840" y="160" as="targetPoint" />
          </mxGeometry>
        </mxCell>
        <mxCell id="eeoJ9yDYp1N3yY1OvAIX-35" value="" style="endArrow=none;html=1;rounded=0;entryX=0;entryY=1;entryDx=0;entryDy=0;" edge="1" parent="1">
          <mxGeometry width="50" height="50" relative="1" as="geometry">
            <mxPoint x="40" y="840" as="sourcePoint" />
            <mxPoint x="40" y="160" as="targetPoint" />
          </mxGeometry>
        </mxCell>
        <mxCell id="eeoJ9yDYp1N3yY1OvAIX-37" value="" style="endArrow=none;html=1;rounded=0;" edge="1" parent="1" source="eeoJ9yDYp1N3yY1OvAIX-39">
          <mxGeometry width="50" height="50" relative="1" as="geometry">
            <mxPoint x="-171.5999755859375" y="160" as="sourcePoint" />
            <mxPoint x="40" y="160" as="targetPoint" />
          </mxGeometry>
        </mxCell>
        <mxCell id="eeoJ9yDYp1N3yY1OvAIX-38" value="" style="endArrow=none;html=1;rounded=0;" edge="1" parent="1" target="eeoJ9yDYp1N3yY1OvAIX-39">
          <mxGeometry width="50" height="50" relative="1" as="geometry">
            <mxPoint x="-171.5999755859375" y="160" as="sourcePoint" />
            <mxPoint x="40" y="160" as="targetPoint" />
          </mxGeometry>
        </mxCell>
        <mxCell id="eeoJ9yDYp1N3yY1OvAIX-39" value="Сделать обязательно" style="rounded=0;whiteSpace=wrap;html=1;" vertex="1" parent="1">
          <mxGeometry x="-130" y="130" width="120" height="60" as="geometry" />
        </mxCell>
        <mxCell id="eeoJ9yDYp1N3yY1OvAIX-40" value="" style="endArrow=none;html=1;rounded=0;" edge="1" parent="1">
          <mxGeometry width="50" height="50" relative="1" as="geometry">
            <mxPoint x="1160" y="440" as="sourcePoint" />
            <mxPoint x="-180" y="440" as="targetPoint" />
          </mxGeometry>
        </mxCell>
        <mxCell id="eeoJ9yDYp1N3yY1OvAIX-41" value="Хорошо бы&amp;nbsp;&lt;div&gt;сделать&lt;/div&gt;" style="rounded=0;whiteSpace=wrap;html=1;" vertex="1" parent="1">
          <mxGeometry x="-130" y="410" width="120" height="60" as="geometry" />
        </mxCell>
        <mxCell id="eeoJ9yDYp1N3yY1OvAIX-42" value="Сканирование" style="rounded=0;whiteSpace=wrap;html=1;" vertex="1" parent="1">
          <mxGeometry x="840" y="120" width="320" height="40" as="geometry" />
        </mxCell>
        <mxCell id="eeoJ9yDYp1N3yY1OvAIX-43" value="Сканирование с камеры" style="rounded=1;whiteSpace=wrap;html=1;fillColor=#f0a30a;fontColor=#FFFFFF;strokeColor=#BD7000;" vertex="1" parent="1">
          <mxGeometry x="875" y="180" width="120" height="60" as="geometry" />
        </mxCell>
        <mxCell id="eeoJ9yDYp1N3yY1OvAIX-44" value="Сканирование с загруженного фото" style="rounded=1;whiteSpace=wrap;html=1;fillColor=#f0a30a;fontColor=#FFFFFF;strokeColor=#BD7000;" vertex="1" parent="1">
          <mxGeometry x="875" y="260" width="120" height="60" as="geometry" />
        </mxCell>
        <mxCell id="eeoJ9yDYp1N3yY1OvAIX-45" value="Выбор одного из найденных на фото стикеров" style="rounded=1;whiteSpace=wrap;html=1;fillColor=#f0a30a;fontColor=#FFFFFF;strokeColor=#BD7000;" vertex="1" parent="1">
          <mxGeometry x="875" y="340" width="120" height="60" as="geometry" />
        </mxCell>
        <mxCell id="eeoJ9yDYp1N3yY1OvAIX-46" value="Поиск в БД похожих стикеров, синхронизация записей" style="rounded=1;whiteSpace=wrap;html=1;fillColor=#fa6800;fontColor=#000000;strokeColor=#C73500;" vertex="1" parent="1">
          <mxGeometry x="875" y="450" width="120" height="60" as="geometry" />
        </mxCell>
        <mxCell id="eeoJ9yDYp1N3yY1OvAIX-47" value="Выбор, добавлять ли отсканированный стикер в коллекцию" style="rounded=1;whiteSpace=wrap;html=1;fillColor=#f0a30a;fontColor=#FFFFFF;strokeColor=#BD7000;" vertex="1" parent="1">
          <mxGeometry x="1020" y="180" width="120" height="60" as="geometry" />
        </mxCell>
        <mxCell id="eeoJ9yDYp1N3yY1OvAIX-48" value="Автоматический поиск стикера на картинке" style="rounded=1;whiteSpace=wrap;html=1;fillColor=#fa6800;fontColor=#000000;strokeColor=#C73500;" vertex="1" parent="1">
          <mxGeometry x="1020" y="260" width="120" height="60" as="geometry" />
        </mxCell>
        <mxCell id="eeoJ9yDYp1N3yY1OvAIX-49" value="Сканирование стикера, помещенного в рамку на экране" style="rounded=1;whiteSpace=wrap;html=1;fillColor=#f0a30a;fontColor=#FFFFFF;strokeColor=#BD7000;" vertex="1" parent="1">
          <mxGeometry x="1020" y="340" width="120" height="60" as="geometry" />
        </mxCell>
        <mxCell id="eeoJ9yDYp1N3yY1OvAIX-50" value="" style="endArrow=none;html=1;rounded=0;entryX=0;entryY=1;entryDx=0;entryDy=0;" edge="1" parent="1">
          <mxGeometry width="50" height="50" relative="1" as="geometry">
            <mxPoint x="1158.75" y="840" as="sourcePoint" />
            <mxPoint x="1158.75" y="160" as="targetPoint" />
          </mxGeometry>
        </mxCell>
        <mxCell id="eeoJ9yDYp1N3yY1OvAIX-51" value="Добавление своего стикера в БД" style="rounded=1;whiteSpace=wrap;html=1;fillColor=#f0a30a;fontColor=#FFFFFF;strokeColor=#BD7000;" vertex="1" parent="1">
          <mxGeometry x="680" y="450" width="120" height="60" as="geometry" />
        </mxCell>
        <mxCell id="eeoJ9yDYp1N3yY1OvAIX-52" value="Возможность пользователю подписаться на автор" style="rounded=1;whiteSpace=wrap;html=1;fillColor=#f0a30a;fontColor=#FFFFFF;strokeColor=#BD7000;" vertex="1" parent="1">
          <mxGeometry x="680" y="525" width="120" height="60" as="geometry" />
        </mxCell>
        <mxCell id="eeoJ9yDYp1N3yY1OvAIX-53" value="Возможность автору оповестить о новом стикере подписчиков" style="rounded=1;whiteSpace=wrap;html=1;fillColor=#f0a30a;fontColor=#FFFFFF;strokeColor=#BD7000;" vertex="1" parent="1">
          <mxGeometry x="680" y="600" width="120" height="60" as="geometry" />
        </mxCell>
      </root>
    </mxGraphModel>
  </diagram>
</mxfile>
